# xmcd
# 
# Track frame offsets:
#     150
#     27161
#     53853
#     85170
#     105872
#     136049
#     166635
#     198827
#     234798
#     258742
# 
# Disc length: 3800
# 
# Revision: 1
# Processed by: cddbd v1.5.2PL0 Copyright (c) Steve Scherf et al.
# Submitted via: fre:ac v1.0.17
# 
DISCID=6b0ed60a
DTITLE=Ida Corr - One - Disc 2
DYEAR=2008
DGENRE=Funk
TTITLE0=Let Me Think About It (Fedde Le Grand Club)
TTITLE1=Let Me Think About It (Funkerman Remix)
TTITLE2=Let Me Think About It (Eddie Thoneick Remix)
TTITLE3=Let Me Think About It (Patchworkz Astro Remix)
TTITLE4=Let Me Think About It (Micky Slim Remix)
TTITLE5=Let Me Think About It (Jason Herds Jfunk Remix)
TTITLE6=Let Me Think About It (Gregor Salto And DJ Madskilz Remix)
TTITLE7=Let Me Think About It (James Talk Remix)
TTITLE8=Let Me Think About It (Mbk Extended Mix)
TTITLE9=Let Me Think About It (Sidelmann Remix)
EXTD=
EXTT0=
EXTT1=
EXTT2=
EXTT3=
EXTT4=
EXTT5=
EXTT6=
EXTT7=
EXTT8=
EXTT9=
PLAYORDER=
